<svg width="2230" height="806" viewBox="0 0 2230 806" fill="none" xmlns="http://www.w3.org/2000/svg">
<path d="M240 0H2230V527L240 806V0Z" fill="url(#paint0_linear_131_2095)"/>
<mask id="mask0_131_2095" style="mask-type:alpha" maskUnits="userSpaceOnUse" x="240" y="0" width="1990" height="806">
<path d="M240 0H2230V527L240 806V0Z" fill="url(#paint1_linear_131_2095)"/>
</mask>
<g mask="url(#mask0_131_2095)">
<g filter="url(#filter0_f_131_2095)">
<path d="M1298.87 817.369C1755.4 642.787 1606.1 966.89 1884.47 998.041C2162.84 1029.19 2376.03 692.769 1757.85 438.722C1139.66 184.675 518.685 1115.72 1298.87 817.369Z" fill="url(#paint2_linear_131_2095)" fill-opacity="0.4"/>
</g>
<g filter="url(#filter1_f_131_2095)">
<path d="M1390.92 172.495C1532.32 334.396 1688.02 27.7295 1980.35 309.579C2272.68 591.428 2534.04 27.7296 2011.33 -157.216C1488.62 -342.162 1222.81 -19.9872 1390.92 172.495Z" fill="url(#paint3_linear_131_2095)" fill-opacity="0.6"/>
</g>
<g filter="url(#filter2_f_131_2095)">
<path d="M717.357 -38.8697C1086.59 102.305 1502.72 -227.509 1579.52 -9.2019C1656.32 209.106 1038.13 -1.92502 456.826 332.253C-124.475 666.432 86.3601 -280.127 717.357 -38.8697Z" fill="url(#paint4_linear_131_2095)" fill-opacity="0.7"/>
</g>
<path d="M1069 322.628L1691 211.511V338.76L1069 451.771L1069 322.628Z" fill="url(#paint5_linear_131_2095)"/>
<path d="M395.248 723.334L696.937 680.532L694.783 741.943L393.063 785.659L395.248 723.334Z" fill="url(#paint6_linear_131_2095)"/>
<path d="M1556.5 749.548L1556.5 656.412L2010.09 575.578V667.336L1556.5 749.548Z" stroke="#5371E7" stroke-opacity="0.3"/>
<path d="M240 381.579L540 327.991V389.359L240 443.861L240 381.579Z" fill="url(#paint7_linear_131_2095)"/>
<path d="M0.500008 456.995L0.5 329.758L617.5 219.584V344.943L0.500008 456.995Z" stroke="white" stroke-opacity="0.4"/>
<path d="M1691 149.147L1991 95.4879V156.937L1691 211.511L1691 149.147Z" fill="url(#paint8_linear_131_2095)"/>
</g>
<defs>
<filter id="filter0_f_131_2095" x="748.736" y="209.273" width="1594.4" height="975.783" filterUnits="userSpaceOnUse" color-interpolation-filters="sRGB">
<feFlood flood-opacity="0" result="BackgroundImageFix"/>
<feBlend mode="normal" in="SourceGraphic" in2="BackgroundImageFix" result="shape"/>
<feGaussianBlur stdDeviation="92.5" result="effect1_foregroundBlur_131_2095"/>
</filter>
<filter id="filter1_f_131_2095" x="1205.7" y="-347.538" width="1240.12" height="869.623" filterUnits="userSpaceOnUse" color-interpolation-filters="sRGB">
<feFlood flood-opacity="0" result="BackgroundImageFix"/>
<feBlend mode="normal" in="SourceGraphic" in2="BackgroundImageFix" result="shape"/>
<feGaussianBlur stdDeviation="67.5" result="effect1_foregroundBlur_131_2095"/>
</filter>
<filter id="filter2_f_131_2095" x="-130.375" y="-332.247" width="1962.39" height="982.787" filterUnits="userSpaceOnUse" color-interpolation-filters="sRGB">
<feFlood flood-opacity="0" result="BackgroundImageFix"/>
<feBlend mode="normal" in="SourceGraphic" in2="BackgroundImageFix" result="shape"/>
<feGaussianBlur stdDeviation="123" result="effect1_foregroundBlur_131_2095"/>
</filter>
<linearGradient id="paint0_linear_131_2095" x1="240" y1="539" x2="2166.16" y2="21.4201" gradientUnits="userSpaceOnUse">
<stop stop-color="#1B45B4"/>
<stop offset="1" stop-color="#1C2792"/>
</linearGradient>
<linearGradient id="paint1_linear_131_2095" x1="240" y1="539" x2="2166.16" y2="21.4201" gradientUnits="userSpaceOnUse">
<stop stop-color="#1B45B4"/>
<stop offset="1" stop-color="#1C2792"/>
</linearGradient>
<linearGradient id="paint2_linear_131_2095" x1="770.182" y1="914.531" x2="1829.11" y2="294.493" gradientUnits="userSpaceOnUse">
<stop stop-color="#0589F0"/>
<stop offset="1" stop-color="#0589F0"/>
</linearGradient>
<linearGradient id="paint3_linear_131_2095" x1="1113.13" y1="348.838" x2="2089.49" y2="-221.96" gradientUnits="userSpaceOnUse">
<stop stop-color="#0589F0"/>
<stop offset="1" stop-color="#B14EDF"/>
</linearGradient>
<linearGradient id="paint4_linear_131_2095" x1="297.195" y1="-169.853" x2="1153.56" y2="331.667" gradientUnits="userSpaceOnUse">
<stop stop-color="#0589F0"/>
<stop offset="1" stop-color="#0589F0"/>
</linearGradient>
<linearGradient id="paint5_linear_131_2095" x1="1691" y1="270.952" x2="1168.79" y2="93.7202" gradientUnits="userSpaceOnUse">
<stop stop-color="#0097FE" stop-opacity="0.1"/>
<stop offset="1" stop-color="#0097FE" stop-opacity="0.05"/>
</linearGradient>
<linearGradient id="paint6_linear_131_2095" x1="695.931" y1="709.219" x2="447.077" y2="614.985" gradientUnits="userSpaceOnUse">
<stop stop-color="#0097FE" stop-opacity="0"/>
<stop offset="1" stop-color="#0097FE" stop-opacity="0.86"/>
</linearGradient>
<linearGradient id="paint7_linear_131_2095" x1="540" y1="356.658" x2="288.137" y2="271.17" gradientUnits="userSpaceOnUse">
<stop stop-color="#0097FE" stop-opacity="0.2"/>
<stop offset="1" stop-color="#0097FE" stop-opacity="0.2"/>
</linearGradient>
<linearGradient id="paint8_linear_131_2095" x1="1991" y1="124.193" x2="1739.07" y2="38.7938" gradientUnits="userSpaceOnUse">
<stop stop-color="#0097FE" stop-opacity="0"/>
<stop offset="1" stop-color="#0097FE" stop-opacity="0.86"/>
</linearGradient>
</defs>
</svg>
